<svg
    viewBox="0 0 384 512"
    width="70"
    height="70"
    fill="black"
    xmlns="http://www.w3.org/2000/svg"
  >
    <path d="M318.7 268.7c-.2-36.7 16.4-64.4 50-84.8-18.8-26.9-47.2-41.7-84.1-44.6-35.9-2.8-74.3 22.7-93.1 22.7-18.9 0-46.5-20.9-77-20.9-38.6 0-77.2 22.7-98.8 59.8-43.2 74-27 181 16.2 243.6 20.8 30.1 46.2 64.1 79.5 63 32.5-1.1 44.9-20.7 83.9-20.7 38.8 0 50.4 20.9 84.1 20.4 34.6-.5 56.4-31.5 76.9-61.9 23.5-35.4 33-69.6 33.8-71.4-1.2-.5-71-27.1-71.4-105.2zM227.5 106.6c31.1-37.4 25.5-74.1 24.3-81.8-31.6 1.3-68.9 21-91.2 57.6-18.4 30.5-27 68.3-21.2 103.5 35 2.7 69-18.7 88.1-79.3z" />
  </svg>
