<svg viewBox="0 0 24 24" fill="currentColor" xmlns="http://www.w3.org/2000/svg"><path d="M12 18c-3.31 0-6-2.69-6-6s2.69-6 6-6 6 2.69 6 6-2.69 6-6 6zm0-10c-2.21 0-4 1.79-4 4s1.79 4 4 4 4-1.79 4-4-1.79-4-4-4zm0-6c.55 0 1 .45 1 1v2c0 .55-.45 1-1 1s-1-.45-1-1V3c0-.55.45-1 1-1zm0 20c.55 0 1 .45 1 1v2c0 .55-.45 1-1 1s-1-.45-1-1v-2c0-.55.45-1 1-1zm10-10c0 .55-.45 1-1 1h-2c-.55 0-1-.45-1-1s.45-1 1-1h2c.55 0 1 .45 1 1zM5 12c0 .55-.45 1-1 1H2c-.55 0-1-.45-1-1s.45-1 1-1h2c.55 0 1 .45 1 1zm14.36-7.36c.39.39.39 1.02 0 1.41l-1.41 1.41c-.39.39-1.02.39-1.41 0-.39-.39-.39-1.02 0-1.41l1.41-1.41c.39-.39 1.02-.39 1.41 0zM5.05 18.95c.39.39.39 1.02 0 1.41l-1.41 1.41c-.39.39-1.02.39-1.41 0-.39-.39-.39-1.02 0-1.41l1.41-1.41c.39-.39 1.02-.39 1.41 0zm14.95 0c-.39-.39-.39-1.02 0-1.41l1.41-1.41c.39-.39 1.02-.39 1.41 0 .39.39.39 1.02 0 1.41l-1.41 1.41c-.39.39-1.02.39-1.41 0zM6.46 6.46c-.39-.39-.39-1.02 0-1.41L5.05 3.64c-.39-.39-1.02-.39-1.41 0-.39.39-.39 1.02 0 1.41l1.41 1.41c.39.39 1.02.39 1.41 0z"/></svg>
